<?xml version="1.0" encoding="utf-8"?>
<!-- Generator: Adobe Illustrator 15.0.0, SVG Export Plug-In . SVG Version: 6.00 Build 0)  -->
<!DOCTYPE svg PUBLIC "-//W3C//DTD SVG 1.1//EN" "http://www.w3.org/Graphics/SVG/1.1/DTD/svg11.dtd">
<svg version="1.1" id="Layer_1" xmlns="http://www.w3.org/2000/svg" xmlns:xlink="http://www.w3.org/1999/xlink" x="0px" y="0px"
	 width="625px" height="247px" viewBox="0 0 625 247" enable-background="new 0 0 625 247" xml:space="preserve">
<g>
	<g>
		<g>
			<path fill="#A18F60" d="M129.311,49.906l-2.911,8.818h-3.743l9.526-28.035h4.367l9.565,28.035h-3.868l-2.993-8.818H129.311z
				 M138.505,47.078l-2.745-8.069c-0.625-1.831-1.04-3.494-1.457-5.117h-0.083c-0.417,1.665-0.873,3.37-1.415,5.074l-2.745,8.112
				H138.505z"/>
			<path fill="#A18F60" d="M151.275,31.064c1.83-0.375,4.451-0.583,6.947-0.583c3.867,0,6.363,0.708,8.11,2.288
				c1.413,1.248,2.203,3.162,2.203,5.324c0,3.703-2.327,6.156-5.282,7.155v0.125c2.164,0.749,3.452,2.745,4.118,5.657
				c0.915,3.909,1.581,6.614,2.162,7.694h-3.743c-0.456-0.791-1.081-3.203-1.871-6.697c-0.832-3.868-2.33-5.324-5.614-5.448h-3.411
				v12.145h-3.619V31.064z M154.895,43.833h3.701c3.867,0,6.322-2.121,6.322-5.324c0-3.619-2.621-5.198-6.446-5.24
				c-1.747,0-2.994,0.166-3.577,0.332V43.833z"/>
			<path fill="#A18F60" d="M194.41,57.809c-1.33,0.665-3.992,1.331-7.403,1.331c-7.902,0-13.852-4.991-13.852-14.184
				c0-8.777,5.949-14.724,14.643-14.724c3.494,0,5.697,0.748,6.654,1.248l-0.874,2.952c-1.371-0.665-3.325-1.164-5.656-1.164
				c-6.57,0-10.938,4.201-10.938,11.563c0,6.862,3.95,11.271,10.773,11.271c2.203,0,4.45-0.458,5.907-1.165L194.41,57.809z"/>
			<path fill="#A18F60" d="M203.604,30.689v11.729h13.562V30.689h3.66v28.035h-3.66V45.58h-13.562v13.144h-3.619V30.689H203.604z"/>
			<path fill="#A18F60" d="M242.664,45.58h-10.897v10.107h12.146v3.037h-15.765V30.689h15.141v3.037h-11.522v8.859h10.897V45.58z"/>
			<path fill="#A18F60" d="M249.652,31.064c1.83-0.375,4.45-0.583,6.946-0.583c3.868,0,6.364,0.708,8.111,2.288
				c1.415,1.248,2.205,3.162,2.205,5.324c0,3.703-2.33,6.156-5.282,7.155v0.125c2.162,0.749,3.453,2.745,4.116,5.657
				c0.915,3.909,1.581,6.614,2.164,7.694h-3.742c-0.459-0.791-1.084-3.203-1.872-6.697c-0.832-3.868-2.33-5.324-5.617-5.448h-3.411
				v12.145h-3.618V31.064z M253.271,43.833h3.704c3.867,0,6.322-2.121,6.322-5.324c0-3.619-2.62-5.198-6.449-5.24
				c-1.747,0-2.993,0.166-3.577,0.332V43.833z"/>
			<path fill="#A18F60" d="M272.073,41.92c0-1.539,1.04-2.621,2.497-2.621c1.456,0,2.413,1.082,2.454,2.621
				c0,1.456-0.956,2.579-2.496,2.579C273.071,44.499,272.073,43.375,272.073,41.92z M272.073,56.603c0-1.538,1.04-2.621,2.497-2.621
				c1.456,0,2.413,1.083,2.454,2.621c0,1.457-0.956,2.579-2.496,2.579C273.071,59.182,272.073,58.06,272.073,56.603z"/>
		</g>
	</g>
	<g>
		<path fill="#E8E7E7" d="M325.9,43.98l-2.146,6.496h-2.758l7.017-20.651h3.217l7.048,20.651h-2.849l-2.206-6.496H325.9z
			 M332.671,41.898l-2.021-5.945c-0.462-1.348-0.768-2.573-1.073-3.768h-0.062c-0.306,1.225-0.643,2.48-1.042,3.737l-2.021,5.975
			H332.671z"/>
		<path fill="#E8E7E7" d="M345.903,30.102c1.164-0.245,3.002-0.429,4.871-0.429c2.664,0,4.38,0.46,5.668,1.501
			c1.071,0.797,1.717,2.023,1.717,3.647c0,1.991-1.319,3.738-3.494,4.533v0.062c1.962,0.49,4.259,2.114,4.259,5.178
			c0,1.777-0.705,3.125-1.747,4.136c-1.439,1.318-3.767,1.931-7.139,1.931c-1.838,0-3.248-0.123-4.135-0.245V30.102z
			 M348.568,38.558h2.421c2.817,0,4.474-1.471,4.474-3.463c0-2.419-1.84-3.37-4.536-3.37c-1.226,0-1.931,0.092-2.358,0.184V38.558z
			 M348.568,48.455c0.521,0.092,1.285,0.122,2.236,0.122c2.759,0,5.301-1.011,5.301-4.014c0-2.819-2.421-3.983-5.331-3.983h-2.206
			V48.455z"/>
		<path fill="#E8E7E7" d="M381.531,49.802c-0.979,0.49-2.941,0.98-5.453,0.98c-5.822,0-10.203-3.676-10.203-10.447
			c0-6.465,4.381-10.847,10.786-10.847c2.571,0,4.196,0.552,4.901,0.919l-0.643,2.176c-1.014-0.49-2.452-0.858-4.168-0.858
			c-4.842,0-8.059,3.095-8.059,8.518c0,5.056,2.91,8.304,7.937,8.304c1.623,0,3.276-0.337,4.35-0.858L381.531,49.802z"/>
		<path fill="#E8E7E7" d="M389.463,30.102c1.623-0.245,3.554-0.429,5.667-0.429c3.831,0,6.558,0.889,8.364,2.574
			c1.84,1.685,2.911,4.075,2.911,7.415c0,3.369-1.042,6.127-2.971,8.027c-1.932,1.93-5.117,2.972-9.132,2.972
			c-1.9,0-3.492-0.092-4.84-0.245V30.102z M392.128,48.362c0.674,0.122,1.653,0.153,2.695,0.153c5.7,0,8.795-3.187,8.795-8.763
			c0.028-4.872-2.727-7.967-8.364-7.967c-1.379,0-2.421,0.123-3.126,0.276V48.362z"/>
		<path fill="#E8E7E7" d="M425.15,40.795h-8.027v7.444h8.948v2.237h-11.613V29.825h11.154v2.237h-8.489v6.525h8.027V40.795z"/>
		<path fill="#E8E7E7" d="M434.124,29.825h11.123v2.237h-8.458v6.862h7.815v2.207h-7.815v9.345h-2.665V29.825z"/>
		<path fill="#E8E7E7" d="M469.355,49.558c-1.194,0.429-3.554,1.132-6.34,1.132c-3.126,0-5.7-0.795-7.722-2.727
			c-1.778-1.715-2.88-4.473-2.88-7.689c0.031-6.159,4.259-10.663,11.183-10.663c2.39,0,4.258,0.521,5.147,0.95l-0.643,2.175
			c-1.104-0.49-2.483-0.888-4.565-0.888c-5.025,0-8.305,3.125-8.305,8.302c0,5.24,3.157,8.333,7.968,8.333
			c1.745,0,2.939-0.245,3.554-0.551v-6.159h-4.198V39.63h6.801V49.558z"/>
		<path fill="#E8E7E7" d="M480.688,29.825v20.651h-2.665V29.825H480.688z"/>
		<path fill="#E8E7E7" d="M494.167,29.825h2.667v13.818c0,5.485-2.698,7.17-6.252,7.17c-0.979,0-2.175-0.214-2.849-0.49l0.399-2.176
			c0.55,0.215,1.348,0.399,2.237,0.399c2.39,0,3.797-1.073,3.797-5.117V29.825z"/>
		<path fill="#E8E7E7" d="M322.56,66.586h2.664v9.958h0.094c0.552-0.796,1.102-1.532,1.622-2.206l6.312-7.751h3.31l-7.476,8.763
			l8.059,11.888h-3.157l-6.801-10.141l-1.963,2.267v7.875h-2.664V66.586z"/>
		<path fill="#E8E7E7" d="M343.757,66.586h2.665V85h8.826v2.237h-11.491V66.586z"/>
		<path fill="#E8E7E7" d="M380.215,78.167c-0.153-2.88-0.337-6.342-0.306-8.916h-0.094c-0.705,2.421-1.561,4.994-2.603,7.844
			l-3.646,10.018h-2.022l-3.341-9.834c-0.979-2.911-1.807-5.577-2.39-8.027h-0.06c-0.062,2.574-0.216,6.036-0.399,9.13l-0.553,8.854
			h-2.542l1.44-20.651h3.401l3.522,9.988c0.858,2.543,1.563,4.811,2.084,6.955h0.094c0.518-2.083,1.254-4.35,2.175-6.955
			l3.675-9.988h3.401l1.288,20.651h-2.605L380.215,78.167z"/>
		<path fill="#E8E7E7" d="M392.034,87.237V66.586h2.911l6.617,10.449c1.532,2.419,2.728,4.596,3.707,6.709l0.062-0.031
			c-0.244-2.756-0.306-5.27-0.306-8.486v-8.641h2.512v20.651h-2.696l-6.558-10.478c-1.438-2.298-2.817-4.657-3.859-6.894
			l-0.091,0.03c0.152,2.605,0.212,5.087,0.212,8.518v8.825H392.034z"/>
		<path fill="#E8E7E7" d="M434.436,76.698c0,7.107-4.321,10.876-9.591,10.876c-5.453,0-9.284-4.228-9.284-10.479
			c0-6.557,4.074-10.847,9.59-10.847C430.788,66.249,434.436,70.569,434.436,76.698z M418.411,77.035
			c0,4.412,2.39,8.365,6.587,8.365c4.228,0,6.617-3.892,6.617-8.58c0-4.105-2.144-8.395-6.586-8.395
			C420.617,68.425,418.411,72.5,418.411,77.035z"/>
		<path fill="#E8E7E7" d="M442.489,66.831c1.285-0.214,2.971-0.398,5.116-0.398c2.634,0,4.564,0.613,5.791,1.716
			c1.133,0.98,1.807,2.482,1.807,4.32c0,1.869-0.552,3.34-1.594,4.412c-1.408,1.502-3.707,2.268-6.312,2.268
			c-0.795,0-1.531-0.031-2.144-0.184v8.272h-2.664V66.831z M445.153,76.79c0.584,0.153,1.317,0.214,2.206,0.214
			c3.217,0,5.179-1.563,5.179-4.412c0-2.727-1.931-4.045-4.873-4.045c-1.163,0-2.053,0.092-2.512,0.215V76.79z"/>
		<path fill="#E8E7E7" d="M480.416,90.27c-2.789-0.735-5.516-1.562-7.905-2.39c-0.428-0.153-0.858-0.306-1.258-0.306
			c-4.901-0.185-9.098-3.799-9.098-10.448c0-6.619,4.043-10.877,9.619-10.877c5.606,0,9.254,4.351,9.254,10.449
			c0,5.299-2.452,8.702-5.882,9.896v0.122c2.053,0.521,4.287,1.011,6.034,1.318L480.416,90.27z M478.21,76.819
			c0-4.136-2.146-8.395-6.526-8.395c-4.505,0-6.711,4.167-6.68,8.64c-0.031,4.382,2.39,8.335,6.558,8.335
			C475.82,85.399,478.21,81.538,478.21,76.819z"/>
		<path fill="#E8E7E7" d="M489.081,66.862c1.349-0.276,3.279-0.429,5.117-0.429c2.849,0,4.688,0.521,5.975,1.685
			c1.042,0.918,1.625,2.329,1.625,3.921c0,2.727-1.716,4.535-3.893,5.27v0.092c1.594,0.552,2.542,2.023,3.035,4.167
			c0.674,2.881,1.163,4.872,1.591,5.668h-2.758c-0.337-0.582-0.796-2.359-1.379-4.933c-0.611-2.85-1.713-3.922-4.134-4.014h-2.515
			v8.946h-2.665V66.862z M491.746,76.269h2.727c2.852,0,4.658-1.563,4.658-3.922c0-2.666-1.931-3.83-4.749-3.861
			c-1.285,0-2.205,0.124-2.636,0.245V76.269z"/>
		<path fill="#E8E7E7" d="M322.191,120.749c1.194,0.735,2.941,1.348,4.779,1.348c2.728,0,4.321-1.44,4.321-3.522
			c0-1.931-1.104-3.034-3.891-4.106c-3.372-1.195-5.454-2.942-5.454-5.853c0-3.217,2.665-5.607,6.68-5.607
			c2.113,0,3.645,0.49,4.565,1.011l-0.736,2.176c-0.674-0.368-2.053-0.981-3.922-0.981c-2.817,0-3.891,1.686-3.891,3.095
			c0,1.93,1.257,2.88,4.105,3.983c3.491,1.348,5.27,3.034,5.27,6.066c0,3.187-2.358,5.944-7.231,5.944
			c-1.991,0-4.166-0.582-5.27-1.317L322.191,120.749z"/>
		<path fill="#E8E7E7" d="M346.179,105.613h-6.281v-2.268h15.288v2.268h-6.312v18.383h-2.695V105.613z"/>
		<path fill="#E8E7E7" d="M364.742,103.345v12.226c0,4.627,2.054,6.588,4.812,6.588c3.063,0,5.023-2.023,5.023-6.588v-12.226h2.695
			v12.042c0,6.343-3.339,8.946-7.812,8.946c-4.228,0-7.413-2.421-7.413-8.823v-12.165H364.742z"/>
		<path fill="#E8E7E7" d="M391.026,123.996l-6.739-20.651h2.88l3.217,10.173c0.889,2.788,1.653,5.301,2.205,7.72h0.06
			c0.584-2.39,1.441-4.994,2.361-7.689l3.492-10.204h2.849l-7.383,20.651H391.026z"/>
		<path fill="#E8E7E7" d="M412.04,123.996l-5.238-20.651h2.817l2.452,10.449c0.611,2.573,1.164,5.146,1.532,7.139h0.06
			c0.337-2.053,0.982-4.504,1.685-7.17l2.758-10.417h2.789l2.512,10.479c0.583,2.452,1.136,4.903,1.441,7.078h0.06
			c0.43-2.267,1.011-4.564,1.656-7.139l2.727-10.417h2.727l-5.853,20.651h-2.789l-2.603-10.754
			c-0.646-2.635-1.073-4.657-1.348-6.741h-0.062c-0.368,2.053-0.826,4.075-1.594,6.741l-2.942,10.754H412.04z"/>
		<path fill="#E8E7E7" d="M450.485,123.996l-2.634-4.564c-1.072-1.747-1.747-2.881-2.39-4.076H445.4
			c-0.581,1.195-1.164,2.298-2.237,4.106l-2.48,4.535h-3.064l6.312-10.447l-6.068-10.204h3.095l2.727,4.841
			c0.768,1.349,1.349,2.39,1.9,3.493h0.091c0.583-1.225,1.104-2.175,1.871-3.493l2.817-4.841h3.064l-6.281,10.049l6.434,10.602
			H450.485z"/>
		<path fill="#E8E7E7" d="M466.015,123.996v-8.762l-6.527-11.889h3.036l2.91,5.699c0.796,1.563,1.408,2.819,2.054,4.259h0.06
			c0.583-1.348,1.288-2.696,2.084-4.259l2.973-5.699h3.033l-6.927,11.857v8.793H466.015z"/>
		<path fill="#E8E7E7" d="M481.178,122.434l11.46-16.759v-0.092h-10.479v-2.237h13.939v1.624l-11.396,16.698v0.092h11.55v2.237
			h-15.073V122.434z"/>
	</g>
</g>
</svg>
