<?xml version="1.0" encoding="utf-8"?>
<!-- Generator: Adobe Illustrator 15.0.0, SVG Export Plug-In . SVG Version: 6.00 Build 0)  -->
<!DOCTYPE svg PUBLIC "-//W3C//DTD SVG 1.1//EN" "http://www.w3.org/Graphics/SVG/1.1/DTD/svg11.dtd">
<svg version="1.1" id="Layer_1" xmlns="http://www.w3.org/2000/svg" xmlns:xlink="http://www.w3.org/1999/xlink" x="0px" y="0px"
	 width="800px" height="800px" viewBox="0 0 800 800" enable-background="new 0 0 800 800" xml:space="preserve">
<g>
	<g>
		<g>
			<path fill="#A18F60" d="M161.782,210.085v75.503h11.944v10.78h-33.616v-10.78h11.667v-85.961h-11.667v-10.78h20.705l52.778,81.87
				v-71.09h-12.085v-10.78h33.197v10.78h-11.254V296.7l-5.697,0.161L161.782,210.085z"/>
			<path fill="#A18F60" d="M257.904,242.778c0-31.545,19.581-55.887,46.527-55.887c26.533,0,45.978,24.503,45.978,55.555
				c0,31.535-19.722,55.887-46.532,55.887C277.208,298.333,257.904,273.82,257.904,242.778z M339.709,242.778
				c0-25.339-14.72-44.783-35.556-44.783c-20.966,0-35.69,19.283-35.69,44.451c0,25.329,14.725,44.773,35.69,44.773
				C324.989,287.22,339.709,267.937,339.709,242.778z"/>
			<path fill="#A18F60" d="M375.002,285.588h11.667v-85.961h-11.667v-10.78h34.719c20.14,0,33.202,11.929,33.202,31.213
				c0,14.709-8.06,24.996-19.586,29.409l19.168,36.119h10.967v10.78h-18.05l-22.508-43.958c-1.662,0.161-3.466,0.333-5.274,0.333
				c-3.611,0-7.914-0.172-10.559-0.333v33.178h11.944v10.78h-34.023V285.588z M432.506,220.382c0-13.562-9.169-20.755-23.334-20.755
				h-12.091v42.164c2.786,0.161,6.67,0.322,11.118,0.322C422.083,242.113,432.506,234.598,432.506,220.382z"/>
			<path fill="#A18F60" d="M486.82,285.588h12.357v-86.444h-22.916v17.319h-9.863v-27.616h75.976v27.616h-9.858v-17.319h-22.921
				v86.444h12.362v10.78H486.82V285.588z"/>
			<path fill="#A18F60" d="M565.164,285.588h11.667v-85.961h-11.667v-10.78h34.029v10.78h-11.944v36.28h50.562v-36.28h-11.949
				v-10.78h34.029v10.78h-11.668v85.961h11.668v10.78h-34.029v-10.78h11.949v-38.9h-50.562v38.9h11.944v10.78h-34.029V285.588z"/>
		</g>
		<g>
			<path fill="#A18F60" d="M413.579,40.713c0,27.565,57.327,34.617,116.161,34.617h118.418c72.424,0,90.524,15.396,90.524,42.961
				v25.006H710.02v-24.361c0-12.825-12.07-19.233-74.678-19.233H516.92c-78.455,0.635-111.643-28.221-116.922-33.349h-1.506
				c-4.529,5.128-38.466,33.983-116.917,33.349H164.659c-62.607,0-74.677,6.408-74.677,19.233v24.361H61.318v-25.006
				c0-27.565,18.1-42.961,90.51-42.961h117.677c58.083,0,115.41-7.052,115.41-34.617H413.579z"/>
		</g>
		<g>
			<path fill="#A18F60" d="M386.427,759.288c0-27.575-57.327-34.628-116.161-34.628H151.838c-72.42,0-90.52-15.385-90.52-42.96
				v-25.007h28.664v24.362c0,12.825,12.07,19.243,74.682,19.243h118.423c78.449-0.635,111.632,28.21,116.916,33.339h1.507
				c4.528-5.129,38.467-33.974,116.921-33.339h116.911c62.607,0,74.682-6.418,74.682-19.243v-24.362h28.659V681.7
				c0,27.575-18.101,42.96-90.515,42.96H530.496c-58.078,0-115.41,7.053-115.41,34.628H386.427z"/>
		</g>
		<g>
			<path fill="#A18F60" d="M0.651,481.176h8.75l27.364-86.112H26.353v-10.619h41.666v10.619H57.601l27.364,86.112h8.75v10.79H63.157
				v-10.629h10.695l-8.196-26.468H28.292l-8.191,26.468h11.107v10.629H0.651V481.176z M62.598,444.572l-15.551-50.163
				l-15.697,50.163H62.598z"/>
			<path fill="#A18F60" d="M111.084,481.176h11.944l3.335-85.951h-12.221v-10.78h22.221l29.862,73.045l30.004-73.045h22.084v10.78
				h-12.226l3.335,85.951h11.808v10.79h-33.615v-10.79h11.672l-2.363-75.171l-29.45,70.758h-2.775l-29.444-70.758l-2.227,75.171
				h11.525v10.79h-33.469V481.176z"/>
			<path fill="#A18F60" d="M244.711,481.176h11.667v-85.951h-11.667v-10.78h66.39v26.307h-9.864v-15.688h-34.442v36.926h29.863
				v10.458h-29.863v38.89h34.442V465.66h10.004v26.306h-66.53V481.176z"/>
			<path fill="#A18F60" d="M336.807,481.176h11.667v-85.951h-11.667v-10.78h34.719c20.14,0,33.198,11.919,33.198,31.203
				c0,14.709-8.061,25.006-19.586,29.419l19.167,36.109h10.973v10.79h-18.055l-22.503-43.957c-1.667,0.161-3.471,0.322-5.274,0.322
				c-3.612,0-7.919-0.161-10.559-0.322v33.167h11.944v10.79h-34.023V481.176z M394.306,415.979c0-13.561-9.168-20.755-23.334-20.755
				h-12.085v42.154c2.775,0.172,6.665,0.333,11.107,0.333C383.888,437.712,394.306,430.195,394.306,415.979z"/>
			<path fill="#A18F60" d="M433.205,481.176h12.357v-85.951h-12.357v-10.78h35.002v10.78h-12.363v85.951h12.363v10.79h-35.002
				V481.176z"/>
			<path fill="#A18F60" d="M493.072,438.688c0-33.167,21.666-56.209,46.385-56.209c19.174,0,34.176,13.562,34.176,26.468
				c0,6.045-3.477,10.629-8.061,10.629c-4.303,0-7.637-3.758-7.637-8.664c0-3.104,1.667-5.723,3.471-6.539
				c-2.499-4.735-10.413-10.78-22.08-10.78c-20.835,0-35.695,20.755-35.695,44.935c0,23.042,14.719,44.29,36.245,44.29
				c10.977,0,20.145-4.906,28.336-13.894l6.115,8.655c-9.168,10.79-21.812,16.352-34.451,16.352
				C511.681,493.931,493.072,468.27,493.072,438.688z"/>
			<path fill="#A18F60" d="M592.251,481.176h8.745l27.364-86.112h-10.413v-10.619h41.666v10.619h-10.418l27.364,86.112h8.755v10.79
				h-30.562v-10.629h10.695l-8.197-26.468h-37.363l-8.19,26.468h11.112v10.629h-30.558V481.176z M654.193,444.572l-15.552-50.163
				l-15.696,50.163H654.193z"/>
			<path fill="#A18F60" d="M726.426,405.683v75.493h11.944v10.79h-33.605v-10.79h11.667v-85.951h-11.667v-10.78h20.694l52.778,81.86
				v-71.08h-12.085v-10.78h33.197v10.78h-11.248v97.063l-5.693,0.161L726.426,405.683z"/>
		</g>
		<g>
			<path fill="#A18F60" d="M189.761,616.504h4.579l1.275-32.925h-4.68v-4.131h8.514l11.44,27.979l11.496-27.979h8.463v4.131h-4.685
				l1.274,32.925h4.519v4.131H219.08v-4.131h4.473l-0.907-28.794l-11.279,27.102h-1.063L199.02,587.71l-0.851,28.794h4.418v4.131
				h-12.826V616.504z"/>
			<path fill="#A18F60" d="M240.942,616.504h4.463v-32.925h-4.463v-4.131h25.43v10.075h-3.778v-6.005h-13.198v14.146h11.44v4h-11.44
				v14.911h13.198v-6.016h3.829v10.075h-25.48V616.504z"/>
			<path fill="#A18F60" d="M274.13,616.504h3.35l10.488-32.985h-3.995v-4.07h15.964v4.07h-3.985l10.478,32.985h3.355v4.131h-11.708
				v-4.06h4.096l-3.139-10.146h-14.316l-3.133,10.146h4.251v4.06H274.13V616.504z M297.867,602.479l-5.964-19.213l-6.005,19.213
				H297.867z"/>
			<path fill="#A18F60" d="M321.372,616.504h4.74v-33.116h-8.78v6.64h-3.783v-10.579h29.112v10.579h-3.778v-6.64h-8.781v33.116
				h4.735v4.131h-13.465V616.504z"/>
			<path fill="#A18F60" d="M350.741,612.816c0-2.377,1.219-3.949,2.815-3.949c1.647,0,2.766,1.44,2.766,3.073
				c0,1.118-0.367,1.995-0.846,2.75c1.169,1.381,3.778,2.569,6.972,2.569c4.675,0,7.496-2.821,7.496-7.264
				c0-4.252-3.295-6.136-7.285-7.949c-6.015-2.69-10.589-5.32-10.589-12.403c0-6.316,4.251-10.951,10.8-10.951
				c5.748,0,10.428,3.879,10.428,8.141c0,2.317-1.279,3.627-2.766,3.627c-1.708,0-2.821-1.501-2.821-3.193
				c0-0.998,0.373-1.813,0.75-2.378c-0.962-1.249-3.516-2.065-5.697-2.065c-4.207,0-6.761,2.7-6.761,6.448
				c0,4.383,3.3,6.196,7.713,8.201c5.748,2.629,10.171,5.198,10.171,12.15c0,7.264-4.902,11.707-11.501,11.707
				C355.526,621.33,350.741,616.816,350.741,612.816z"/>
			<path fill="#A18F60" d="M425.594,603.921c-0.957,3.385-1.97,6.267-3.3,8.644c2.131,2.378,5.164,5.512,5.643,5.944l-2.287,2.942
				c-0.479-0.504-3.405-3.566-5.481-5.823c-2.927,3.697-6.705,5.571-11.012,5.571c-7.032,0-10.543-4.815-10.543-10.136
				c0-5.007,2.72-8.453,7.294-11.516c-3.032-4.08-3.511-6.267-3.511-9.018c0-4.322,2.926-9.329,8.402-9.329
				c4.362,0,7.717,3.314,7.717,8.131c0,3.949-2.024,6.951-7.45,10.77c0.852,1.068,1.919,2.257,3.199,3.638
				c0,0,3.345,3.748,5.637,6.317c1.063-1.874,1.914-4,2.554-6.136h-3.032v-3.688h9.314v3.688H425.594z M417.771,612.998
				c-2.337-2.63-5.854-6.448-5.854-6.448c-1.597-1.683-2.922-3.193-3.989-4.503c-3.779,2.689-5.426,5.259-5.426,8.886
				c0,3.134,2.181,6.388,6.654,6.388C412.723,617.32,415.534,615.628,417.771,612.998z M408.995,597.664
				c4.574-3.325,5.748-5.451,5.748-8.332c0-2.56-1.657-4.504-3.944-4.504c-2.766,0-4.625,2.569-4.625,5.823
				C406.174,592.465,406.547,594.278,408.995,597.664z"/>
			<path fill="#A18F60" d="M452.288,616.504h4.579l1.274-32.925h-4.68v-4.131h8.513l11.44,27.979l11.496-27.979h8.463v4.131h-4.685
				l1.279,32.925h4.519v4.131h-12.881v-4.131h4.474l-0.907-28.794l-11.279,27.102h-1.062l-11.284-27.102l-0.847,28.794h4.413v4.131
				h-12.825V616.504z"/>
			<path fill="#A18F60" d="M503.041,600.102c0-12.08,7.501-21.409,17.828-21.409c10.166,0,17.611,9.39,17.611,21.289
				c0,12.08-7.557,21.409-17.823,21.409C510.437,621.391,503.041,612.001,503.041,600.102z M534.385,600.102
				c0-9.702-5.637-17.147-13.627-17.147c-8.034,0-13.672,7.385-13.672,17.027c0,9.702,5.638,17.147,13.672,17.147
				C528.748,617.129,534.385,609.744,534.385,600.102z"/>
			<path fill="#A18F60" d="M547.891,616.504h4.468v-32.925h-4.468v-4.131h13.299c7.718,0,12.72,4.563,12.72,11.959
				c0,5.632-3.088,9.571-7.506,11.264l7.345,13.833h4.207v4.131h-6.922l-8.625-16.835c-0.635,0.061-1.33,0.121-2.015,0.121
				c-1.391,0-3.038-0.061-4.05-0.121v12.704h4.579v4.131h-13.032V616.504z M569.92,591.528c0-5.199-3.517-7.949-8.941-7.949h-4.635
				v16.15c1.067,0.061,2.559,0.121,4.262,0.121C565.925,599.851,569.92,596.979,569.92,591.528z"/>
			<path fill="#A18F60" d="M584.755,616.504h4.469v-32.925h-4.469v-4.131h25.435v10.075h-3.772v-6.005h-13.204v14.146h11.445v4
				h-11.445v14.911h13.204v-6.016h3.828v10.075h-25.49V616.504z"/>
		</g>
	</g>
</g>
</svg>
