<?xml version="1.0" encoding="utf-8"?>
<!-- Generator: Adobe Illustrator 15.0.0, SVG Export Plug-In . SVG Version: 6.00 Build 0)  -->
<!DOCTYPE svg PUBLIC "-//W3C//DTD SVG 1.1//EN" "http://www.w3.org/Graphics/SVG/1.1/DTD/svg11.dtd">
<svg version="1.1" id="Layer_1" xmlns="http://www.w3.org/2000/svg" xmlns:xlink="http://www.w3.org/1999/xlink" x="0px" y="0px"
	 width="800px" height="800px" viewBox="0 0 800 800" enable-background="new 0 0 800 800" xml:space="preserve">
<g>
	<path fill="#A18F60" d="M747.34,325.624l-27.308-14.522l14.538-27.272l-28.875-11.115l11.09-28.825l-29.982-7.487l7.472-29.988
		l-30.665-3.758l3.779-30.69h-30.921v-30.88l-30.675,3.749l-3.773-30.68l-29.988,7.486l-7.441-29.987l-28.891,11.074l-11.065-28.865
		l-27.312,14.503l-14.503-27.271l-25.303,17.73l-17.705-25.328l-22.982,20.677l-20.662-22.952l-20.306,23.313l-23.303-20.267
		l-17.284,25.599l-25.638-17.26L295.614,90.13l-27.522-14.032l-10.584,29.046l-29.026-10.574l-6.976,30.129l-30.119-6.956
		l-3.197,30.699l-30.76-3.187l0.542,30.88l-30.9,0.562l4.319,30.569l-30.609,4.33l7.953,29.848l-29.812,7.998l11.586,28.655
		l-28.675,11.576l14.989,27.021l-27.052,15.004l18.187,24.996L42.98,374.866l21.078,22.581l-22.631,21.078L65.101,438.4
		l-19.865,23.684l25.929,16.828l-16.843,25.899l27.768,13.561l-13.541,27.763l29.222,10.063l-10.043,29.236l30.204,6.435
		l-6.415,30.229l30.78,2.676l-2.656,30.79l30.87-1.072l1.047,30.88l30.544-4.831l4.821,30.529l29.708-8.539l8.509,29.718
		l28.485-12.088l12.067,28.455l26.751-15.455l15.455,26.78l24.711-18.592l18.552,24.655l22.266-21.448l21.469,22.221l19.444-24.024
		l24.034,19.464l16.327-26.199l26.215,16.367l13.064-27.994l28.014,13.05l9.552-29.396l29.412,9.571l5.858-30.358l30.368,5.913
		l2.146-30.84l30.825,2.125l-1.604-30.83L679.375,632l-5.326-30.439l30.408-5.352l-9.035-29.558l29.557-9.04l-12.568-28.225
		l28.244-12.568l-15.896-26.51l26.479-15.906l-19.022-24.346l24.319-19.043l-21.829-21.83c0,0,25.298-27.372,25.137-28.976
		L729.6,350.932L747.34,325.624z"/>
	<g>
		
			<line fill="none" stroke="#FFFFFF" stroke-width="4.5018" stroke-miterlimit="10" x1="555.715" y1="244.59" x2="242.714" y2="557.621"/>
		
			<line fill="none" stroke="#FFFFFF" stroke-width="4.5018" stroke-miterlimit="10" x1="242.714" y1="244.59" x2="555.715" y2="557.621"/>
		<g>
			<path fill="#FFFFFF" stroke="#A08E60" stroke-width="4.6282" stroke-linecap="square" stroke-miterlimit="10" d="
				M377.485,220.355v56.167h10.439v7.998h-29.417v-7.998h10.203v-63.945h-10.203v-8.038h18.096l46.2,60.908v-52.87h-10.574v-8.038
				h29.066v8.038h-9.873v72.214l-4.976,0.101L377.485,220.355z"/>
		</g>
		<g>
			<path fill="#FFFFFF" stroke="#A08E60" stroke-width="4.6282" stroke-linecap="square" stroke-miterlimit="10" d="M350.739,605.43
				h10.438l2.941-63.936H353.42v-8.008h19.444l26.124,54.313l26.27-54.313h19.324v8.008h-10.714l2.927,63.936h10.323v8.038h-29.407
				v-8.038h10.208l-2.06-55.907l-25.758,52.649h-2.46l-25.764-52.649l-1.954,55.907h10.113v8.038h-29.296V605.43z"/>
		</g>
		<g>
			<path fill="#FFFFFF" stroke="#A08E60" stroke-width="4.6282" stroke-linecap="square" stroke-miterlimit="10" d="
				M201.996,436.296h7.657l23.95-64.036h-9.116v-7.918h36.463v7.918h-9.096l23.939,64.036h7.647v8.048h-26.726v-7.897h9.361
				l-7.186-19.686h-32.714l-7.162,19.686h9.728v7.897h-26.746V436.296z M256.22,409.114l-13.616-37.335l-13.731,37.335H256.22z"/>
		</g>
		<g>
			<path fill="#FFFFFF" stroke="#A08E60" stroke-width="4.6282" stroke-linecap="square" stroke-miterlimit="10" d="
				M507.239,436.296h10.419l2.937-63.905H509.9v-8.049h19.465l26.108,54.354l26.285-54.354h19.294v8.049h-10.649l2.892,63.905
				h10.328v8.048h-29.416v-8.048h10.213l-2.064-55.877l-25.759,52.619h-2.456l-25.758-52.619l-1.935,55.877h10.053v8.048h-29.262
				V436.296z"/>
		</g>
	</g>
	<rect x="228.592" y="366.667" fill="#FFFFFF" width="26.234" height="3.248"/>
</g>
</svg>
