<?xml version="1.0" encoding="utf-8"?>
<!-- Generator: Adobe Illustrator 15.0.0, SVG Export Plug-In . SVG Version: 6.00 Build 0)  -->
<!DOCTYPE svg PUBLIC "-//W3C//DTD SVG 1.1//EN" "http://www.w3.org/Graphics/SVG/1.1/DTD/svg11.dtd">
<svg version="1.1" id="Layer_1" xmlns="http://www.w3.org/2000/svg" xmlns:xlink="http://www.w3.org/1999/xlink" x="0px" y="0px"
	 width="625px" height="247px" viewBox="0 0 625 247" enable-background="new 0 0 625 247" xml:space="preserve">
<g>
	<g>
		<g>
			<path fill="#A18F60" d="M39.391,60.944l-0.041-19.3l-9.567,15.972h-2.413l-9.567-15.722v19.05h-5.156V31.827h4.451l11.562,19.301
				l11.354-19.301h4.453l0.042,29.117H39.391z"/>
			<path fill="#A18F60" d="M51.081,49.838c0-6.655,4.992-11.356,11.812-11.356c6.905,0,11.856,4.701,11.856,11.356
				c0,6.655-4.951,11.397-11.856,11.397C56.073,61.235,51.081,56.493,51.081,49.838z M69.508,49.838
				c0-4.243-2.828-6.947-6.615-6.947c-3.742,0-6.57,2.704-6.57,6.947s2.828,6.947,6.57,6.947
				C66.68,56.785,69.508,54.082,69.508,49.838z"/>
			<path fill="#A18F60" d="M102.66,48.216v12.728h-5.199V48.882c0-3.952-1.954-5.864-5.283-5.864c-3.701,0-6.197,2.246-6.197,6.696
				v11.23h-5.199V38.732h4.95v2.87c1.706-2.038,4.409-3.12,7.652-3.12C98.708,38.482,102.66,41.519,102.66,48.216z"/>
			<path fill="#A18F60" d="M123.669,59.737c-1.249,1-3.121,1.498-4.992,1.498c-4.865,0-7.654-2.579-7.654-7.487v-10.69h-3.66v-4.16
				h3.66v-5.074h5.2v5.074h5.948v4.16h-5.948v10.565c0,2.162,1.08,3.327,3.079,3.327c1.081,0,2.12-0.292,2.911-0.915L123.669,59.737
				z"/>
			<path fill="#A18F60" d="M126.456,58.739l1.995-3.951c1.957,1.289,4.951,2.204,7.737,2.204c3.287,0,4.658-0.915,4.658-2.453
				c0-4.243-13.725-0.25-13.725-9.11c0-4.201,3.784-6.947,9.774-6.947c2.952,0,6.322,0.708,8.318,1.914l-1.996,3.952
				c-2.12-1.248-4.243-1.664-6.363-1.664c-3.163,0-4.658,1.04-4.658,2.495c0,4.493,13.725,0.5,13.725,9.193
				c0,4.16-3.826,6.863-10.064,6.863C132.155,61.235,128.451,60.153,126.456,58.739z"/>
			<path fill="#A18F60" d="M172.255,51.502h-17.429c0.624,3.244,3.328,5.324,7.195,5.324c2.496,0,4.45-0.791,6.031-2.414
				l2.787,3.203c-1.996,2.372-5.117,3.62-8.943,3.62c-7.446,0-12.271-4.783-12.271-11.397s4.868-11.356,11.48-11.356
				c6.488,0,11.231,4.535,11.231,11.48C172.338,50.379,172.296,51.003,172.255,51.502z M154.784,48.05h12.603
				c-0.414-3.203-2.869-5.407-6.28-5.407C157.736,42.643,155.282,44.806,154.784,48.05z"/>
			<path fill="#A18F60" d="M191.224,38.482v4.951c-0.459-0.084-0.832-0.126-1.208-0.126c-3.95,0-6.446,2.33-6.446,6.864v10.772h-5.2
				V38.732h4.951v3.244C184.816,39.647,187.52,38.482,191.224,38.482z"/>
			<path fill="#A18F60" d="M209.526,38.482v4.951c-0.456-0.084-0.832-0.126-1.205-0.126c-3.953,0-6.449,2.33-6.449,6.864v10.772
				h-5.197V38.732h4.948v3.244C203.121,39.647,205.824,38.482,209.526,38.482z"/>
			<path fill="#A18F60" d="M233.445,47.925v13.019h-4.909V58.24c-1.246,1.913-3.66,2.995-6.988,2.995
				c-5.075,0-8.276-2.788-8.276-6.655c0-3.703,2.496-6.614,9.233-6.614h5.741v-0.333c0-3.037-1.83-4.825-5.534-4.825
				c-2.493,0-5.072,0.832-6.736,2.205l-2.038-3.785c2.369-1.831,5.822-2.746,9.399-2.746
				C229.741,38.482,233.445,41.519,233.445,47.925z M228.246,53.997v-2.578h-5.365c-3.536,0-4.492,1.331-4.492,2.953
				c0,1.871,1.578,3.078,4.24,3.078C225.167,57.45,227.372,56.286,228.246,53.997z"/>
			<path fill="#A18F60" d="M254.493,59.737c-1.247,1-3.118,1.498-4.989,1.498c-4.868,0-7.654-2.579-7.654-7.487v-10.69h-3.66v-4.16
				h3.66v-5.074h5.199v5.074h5.946v4.16h-5.946v10.565c0,2.162,1.081,3.327,3.077,3.327c1.081,0,2.123-0.292,2.91-0.915
				L254.493,59.737z"/>
			<path fill="#A18F60" d="M34.528,107.784l1.871-4.201c2.33,1.872,6.032,3.203,9.609,3.203c4.533,0,6.446-1.623,6.446-3.786
				c0-6.28-17.303-2.163-17.303-12.977c0-4.701,3.743-8.694,11.729-8.694c3.494,0,7.154,0.917,9.691,2.579l-1.705,4.202
				c-2.621-1.54-5.49-2.288-8.027-2.288c-4.492,0-6.322,1.747-6.322,3.95c0,6.198,17.261,2.163,17.261,12.853
				c0,4.659-3.785,8.652-11.771,8.652C41.475,111.278,36.941,109.864,34.528,107.784z"/>
			<path fill="#A18F60" d="M84.485,101.42h-17.43c0.625,3.244,3.328,5.324,7.195,5.324c2.497,0,4.454-0.791,6.032-2.414l2.786,3.203
				c-1.995,2.372-5.114,3.62-8.942,3.62c-7.444,0-12.269-4.783-12.269-11.397S66.724,88.4,73.337,88.4
				c6.49,0,11.231,4.535,11.231,11.48C84.568,100.297,84.526,100.921,84.485,101.42z M67.015,97.968h12.604
				c-0.417-3.203-2.871-5.407-6.282-5.407C69.97,92.561,67.515,94.724,67.015,97.968z"/>
			<path fill="#A18F60" d="M127.744,98.134v12.729h-5.197V98.8c0-3.952-1.83-5.864-4.992-5.864c-3.411,0-5.783,2.246-5.783,6.655
				v11.272h-5.197V98.8c0-3.952-1.83-5.864-4.992-5.864c-3.452,0-5.783,2.246-5.783,6.655v11.272h-5.196V88.65h4.948v2.828
				c1.664-1.996,4.243-3.078,7.278-3.078c3.245,0,5.948,1.207,7.488,3.703c1.789-2.288,4.782-3.703,8.318-3.703
				C124.001,88.4,127.744,91.437,127.744,98.134z"/>
			<path fill="#A18F60" d="M134.737,81.871c0-1.747,1.413-3.12,3.328-3.12c1.913,0,3.326,1.29,3.326,2.994
				c0,1.83-1.372,3.246-3.326,3.246C136.15,84.991,134.737,83.618,134.737,81.871z M135.445,88.65h5.196v22.212h-5.196V88.65z"/>
			<path fill="#A18F60" d="M172.089,99.756c0,6.905-4.782,11.397-11.272,11.397c-3.036,0-5.615-1.041-7.361-3.161v2.87h-4.948
				V79.998h5.196v11.356c1.789-1.996,4.285-2.954,7.113-2.954C167.307,88.4,172.089,92.851,172.089,99.756z M166.807,99.756
				c0-4.243-2.828-6.947-6.571-6.947s-6.615,2.704-6.615,6.947s2.872,6.947,6.615,6.947S166.807,104,166.807,99.756z"/>
			<path fill="#A18F60" d="M176.252,99.756c0-6.655,4.989-11.356,11.812-11.356c6.905,0,11.854,4.701,11.854,11.356
				c0,6.655-4.948,11.397-11.854,11.397C181.241,111.153,176.252,106.411,176.252,99.756z M194.676,99.756
				c0-4.243-2.827-6.947-6.612-6.947c-3.742,0-6.573,2.704-6.573,6.947s2.831,6.947,6.573,6.947
				C191.849,106.703,194.676,104,194.676,99.756z"/>
			<path fill="#A18F60" d="M205.952,79.998h5.196v30.864h-5.196V79.998z"/>
			<path fill="#A18F60" d="M240.766,79.998v30.864h-4.992v-2.87c-1.744,2.12-4.323,3.161-7.361,3.161
				c-6.446,0-11.229-4.492-11.229-11.397S221.966,88.4,228.412,88.4c2.869,0,5.407,0.958,7.154,2.995V79.998H240.766z
				 M235.649,99.756c0-4.243-2.87-6.947-6.612-6.947c-3.743,0-6.615,2.704-6.615,6.947s2.872,6.947,6.615,6.947
				C232.779,106.703,235.649,104,235.649,99.756z"/>
			<path fill="#A18F60" d="M246.883,91.853c0-2.08,1.54-3.453,3.411-3.453c1.872,0,3.411,1.373,3.411,3.453
				c0,1.998-1.539,3.453-3.411,3.453C248.423,95.306,246.883,93.851,246.883,91.853z M246.883,107.701
				c0-2.08,1.54-3.453,3.411-3.453c1.872,0,3.411,1.373,3.411,3.453c0,1.996-1.539,3.452-3.411,3.452
				C248.423,111.153,246.883,109.697,246.883,107.701z"/>
		</g>
	</g>
	<g>
		<path fill="#E8E7E7" d="M313.867,47.733h-10.724l-2.112,4.964h-4.105l9.649-21.447h3.922l9.682,21.447h-4.165L313.867,47.733z
			 M312.551,44.609l-4.044-9.375l-4.016,9.375H312.551z"/>
		<path fill="#E8E7E7" d="M337.761,43.106v9.591h-3.616v-1.992c-0.917,1.41-2.695,2.206-5.145,2.206c-3.738,0-6.1-2.052-6.1-4.901
			c0-2.727,1.841-4.872,6.802-4.872h4.23v-0.245c0-2.237-1.349-3.554-4.075-3.554c-1.84,0-3.74,0.612-4.964,1.624l-1.503-2.789
			c1.747-1.348,4.29-2.021,6.926-2.021C335.034,36.152,337.761,38.389,337.761,43.106z M333.933,47.581v-1.9h-3.953
			c-2.605,0-3.311,0.981-3.311,2.176c0,1.379,1.164,2.267,3.126,2.267C331.664,50.124,333.287,49.266,333.933,47.581z"/>
		<path fill="#E8E7E7" d="M373.604,46.875c0,3.677-2.882,5.822-8.396,5.822h-10.663V31.25h10.049c5.148,0,7.906,2.175,7.906,5.576
			c0,2.206-1.102,3.83-2.758,4.719C372.041,42.28,373.604,44.088,373.604,46.875z M358.528,34.375v5.914h5.638
			c2.758,0,4.321-0.981,4.321-2.942c0-1.992-1.563-2.972-4.321-2.972H358.528z M369.589,46.478c0-2.145-1.623-3.095-4.627-3.095
			h-6.434v6.19h6.434C367.966,49.573,369.589,48.623,369.589,46.478z"/>
		<path fill="#E8E7E7" d="M396.394,44.517c0,5.086-3.522,8.395-8.303,8.395c-2.237,0-4.137-0.766-5.423-2.328v2.114h-3.646V29.964
			h3.831v8.364c1.316-1.471,3.154-2.176,5.238-2.176C392.871,36.152,396.394,39.431,396.394,44.517z M392.503,44.517
			c0-3.125-2.084-5.117-4.842-5.117c-2.756,0-4.871,1.992-4.871,5.117c0,3.125,2.115,5.117,4.871,5.117
			C390.419,49.634,392.503,47.642,392.503,44.517z"/>
		<path fill="#E8E7E7" d="M410.388,41.974c0-6.404,4.904-11.031,11.491-11.031c3.491,0,6.495,1.256,8.486,3.585l-2.574,2.421
			c-1.563-1.686-3.491-2.513-5.729-2.513c-4.442,0-7.659,3.126-7.659,7.538s3.217,7.536,7.659,7.536
			c2.237,0,4.165-0.827,5.729-2.542l2.574,2.451c-1.991,2.329-4.995,3.584-8.518,3.584
			C415.292,53.003,410.388,48.378,410.388,41.974z"/>
		<path fill="#E8E7E7" d="M433.396,44.517c0-4.903,3.675-8.364,8.854-8.364c3.186,0,5.729,1.318,6.985,3.799l-2.942,1.716
			c-0.979-1.562-2.449-2.267-4.074-2.267c-2.817,0-4.964,1.961-4.964,5.117c0,3.187,2.146,5.117,4.964,5.117
			c1.625,0,3.095-0.705,4.074-2.267l2.942,1.715c-1.257,2.452-3.8,3.83-6.985,3.83C437.07,52.911,433.396,49.418,433.396,44.517z"/>
		<path fill="#E8E7E7" d="M464.428,31.25h9.375c6.954,0,11.703,4.289,11.703,10.724c0,6.433-4.749,10.723-11.703,10.723h-9.375
			V31.25z M473.619,49.328c4.779,0,7.874-2.911,7.874-7.354s-3.095-7.354-7.874-7.354h-5.211v14.708H473.619z"/>
		<path fill="#E8E7E7" d="M506.919,29.964v22.733h-3.678v-2.114c-1.286,1.562-3.186,2.328-5.423,2.328
			c-4.749,0-8.274-3.309-8.274-8.395c0-5.085,3.525-8.364,8.274-8.364c2.115,0,3.984,0.705,5.27,2.206v-8.394H506.919z
			 M503.15,44.517c0-3.125-2.115-5.117-4.873-5.117s-4.871,1.992-4.871,5.117c0,3.125,2.113,5.117,4.871,5.117
			S503.15,47.642,503.15,44.517z"/>
		<path fill="#E8E7E7" d="M539.911,49.357v3.34h-16.087V31.25h15.656v3.339h-11.675v5.577h10.358v3.279h-10.358v5.913H539.911z"/>
		<path fill="#E8E7E7" d="M560.679,45.743H547.84c0.462,2.39,2.452,3.922,5.301,3.922c1.841,0,3.279-0.583,4.443-1.778l2.053,2.36
			c-1.47,1.746-3.77,2.665-6.587,2.665c-5.484,0-9.038-3.522-9.038-8.395c0-4.872,3.585-8.364,8.455-8.364
			c4.779,0,8.273,3.34,8.273,8.457C560.74,44.915,560.71,45.375,560.679,45.743z M547.812,43.199h9.282
			c-0.306-2.359-2.112-3.983-4.627-3.983C549.986,39.216,548.177,40.809,547.812,43.199z"/>
		<path fill="#E8E7E7" d="M580.282,34.589v6.527h10.355v3.37h-10.355v8.211h-3.984V31.25h15.659v3.339H580.282z"/>
		<path fill="#E8E7E7" d="M601.205,35.479v0.979h4.503v3.065h-4.381v13.174h-3.831V39.523h-2.695v-3.065h2.695v-1.041
			c0-3.432,2.053-5.669,5.853-5.669c1.317,0,2.605,0.276,3.464,0.889l-1.073,2.88c-0.581-0.398-1.317-0.674-2.113-0.674
			C602.032,32.843,601.205,33.731,601.205,35.479z"/>
		<path fill="#E8E7E7" d="M314.604,78.49h3.769v8.547c-2.237,1.808-5.363,2.727-8.396,2.727c-6.648,0-11.551-4.625-11.551-11.029
			c0-6.403,4.902-11.03,11.613-11.03c3.584,0,6.586,1.195,8.607,3.493l-2.512,2.451c-1.685-1.685-3.615-2.451-5.912-2.451
			c-4.567,0-7.784,3.095-7.784,7.538c0,4.351,3.217,7.537,7.753,7.537c1.532,0,3.033-0.306,4.412-1.103V78.49z"/>
		<path fill="#E8E7E7" d="M341.009,73.097v13.879c0,5.944-3.095,8.641-8.823,8.641c-3.064,0-6.097-0.797-7.966-2.329l1.716-2.88
			c1.438,1.195,3.77,1.961,6.034,1.961c3.616,0,5.211-1.655,5.211-4.964v-0.858c-1.349,1.471-3.279,2.176-5.485,2.176
			c-4.689,0-8.273-3.187-8.273-7.936c0-4.75,3.584-7.875,8.273-7.875c2.297,0,4.321,0.734,5.669,2.358v-2.175H341.009z
			 M337.24,80.788c0-2.758-2.082-4.627-4.964-4.627c-2.908,0-4.993,1.869-4.993,4.627c0,2.788,2.085,4.688,4.993,4.688
			C335.158,85.476,337.24,83.575,337.24,80.788z"/>
		<path fill="#E8E7E7" d="M376.974,68.011v21.447h-3.984v-9.191h-11.091v9.191h-3.984V68.011h3.984v8.854h11.091v-8.854H376.974z"/>
		<path fill="#E8E7E7" d="M400.007,80.083v9.375h-3.829v-8.886c0-2.911-1.44-4.319-3.891-4.319c-2.727,0-4.564,1.653-4.564,4.933
			v8.272h-3.831V66.725h3.831v8.272c1.255-1.35,3.186-2.084,5.454-2.084C397.099,72.913,400.007,75.15,400.007,80.083z"/>
		<path fill="#E8E7E7" d="M416.762,68.011h3.981v21.447h-3.981V68.011z"/>
		<path fill="#E8E7E7" d="M427.177,68.102c0-1.286,1.039-2.298,2.449-2.298s2.452,0.95,2.452,2.207c0,1.348-1.011,2.39-2.452,2.39
			C428.216,70.401,427.177,69.389,427.177,68.102z M427.697,73.097h3.829v16.361h-3.829V73.097z"/>
		<path fill="#E8E7E7" d="M445.158,86.67l2.265-2.727c1.164,1.593,2.574,2.451,4.259,2.451c2.206,0,3.342-1.318,3.342-3.953V71.35
			h-7.631v-3.338h11.612v14.216c0,5.056-2.512,7.536-7.229,7.536C449.08,89.764,446.628,88.661,445.158,86.67z"/>
		<path fill="#E8E7E7" d="M460.229,94.667l1.102-2.85c0.583,0.429,1.379,0.644,2.236,0.644c1.41,0,2.206-0.858,2.206-2.605V73.097
			h3.831v16.667c0,3.585-2.053,5.853-5.7,5.853C462.496,95.617,461.117,95.341,460.229,94.667z M465.223,68.102
			c0-1.286,1.042-2.298,2.45-2.298c1.41,0,2.452,0.95,2.452,2.207c0,1.348-1.012,2.39-2.452,2.39
			C466.265,70.401,465.223,69.389,465.223,68.102z"/>
		<path fill="#E8E7E7" d="M493.896,80.48l-3.4,3.493v5.485h-3.984V68.011h3.984v11l10.602-11h4.474l-9.01,9.589l9.56,11.857h-4.656
			L493.896,80.48z"/>
		<path fill="#E8E7E7" d="M516.686,82.441l-2.849,2.697v4.32h-3.828V66.725h3.828v13.726l7.938-7.354h4.596l-6.833,6.863
			l7.476,9.499h-4.658L516.686,82.441z"/>
		<path fill="#E8E7E7" d="M541.375,68.011h3.981v18.077h11.216v3.37h-15.197V68.011z"/>
		<path fill="#E8E7E7" d="M560.889,66.725h3.831v22.733h-3.831V66.725z"/>
		<path fill="#E8E7E7" d="M319.658,126.217l-0.031-14.216l-7.046,11.766h-1.777l-7.046-11.581v14.032h-3.8v-21.447h3.279
			l8.518,14.216l8.364-14.216h3.276l0.031,21.447H319.658z"/>
		<path fill="#E8E7E7" d="M357.738,116.842v9.375h-3.831v-8.885c0-2.911-1.349-4.32-3.676-4.32c-2.515,0-4.259,1.654-4.259,4.901
			v8.304h-3.831v-8.885c0-2.911-1.348-4.32-3.676-4.32c-2.545,0-4.259,1.654-4.259,4.901v8.304h-3.831v-16.361h3.647v2.083
			c1.223-1.47,3.123-2.267,5.36-2.267c2.39,0,4.38,0.889,5.516,2.727c1.316-1.685,3.522-2.727,6.128-2.727
			C354.979,109.672,357.738,111.909,357.738,116.842z"/>
		<path fill="#E8E7E7" d="M393.576,104.771v21.447h-3.279l-11.825-14.523v14.523h-3.953v-21.447h3.279l11.825,14.522v-14.522
			H393.576z"/>
		<path fill="#E8E7E7" d="M416.611,116.842v9.375h-3.831v-8.885c0-2.911-1.438-4.32-3.891-4.32c-2.727,0-4.564,1.654-4.564,4.933
			v8.272h-3.829v-16.361h3.645v2.114c1.258-1.501,3.248-2.298,5.638-2.298C413.7,109.672,416.611,111.909,416.611,116.842z"/>
		<path fill="#E8E7E7" d="M431.832,115.494c0-6.343,4.904-11.031,11.553-11.031s11.551,4.658,11.551,11.031
			s-4.902,11.029-11.551,11.029S431.832,121.835,431.832,115.494z M450.92,115.494c0-4.382-3.217-7.538-7.535-7.538
			c-4.321,0-7.538,3.156-7.538,7.538c0,4.38,3.217,7.536,7.538,7.536C447.703,123.03,450.92,119.875,450.92,115.494z"/>
		<path fill="#E8E7E7" d="M458.974,118.037c0-4.903,3.678-8.365,8.701-8.365c5.089,0,8.733,3.461,8.733,8.365
			c0,4.901-3.645,8.394-8.733,8.394C462.651,126.431,458.974,122.938,458.974,118.037z M472.548,118.037
			c0-3.125-2.084-5.117-4.873-5.117c-2.755,0-4.839,1.992-4.839,5.117c0,3.125,2.084,5.116,4.839,5.116
			C470.464,123.153,472.548,121.162,472.548,118.037z"/>
		<path fill="#E8E7E7" d="M509.921,112.399c0,4.719-3.492,7.63-9.13,7.63h-4.842v6.188h-3.983v-21.447h8.825
			C506.429,104.771,509.921,107.65,509.921,112.399z M505.908,112.399c0-2.696-1.81-4.258-5.301-4.258h-4.658v8.517h4.658
			C504.099,116.658,505.908,115.095,505.908,112.399z"/>
		<path fill="#E8E7E7" d="M532.282,118.037c0,5.085-3.522,8.394-8.303,8.394c-2.084,0-3.921-0.704-5.238-2.206v7.936h-3.831v-22.305
			h3.647v2.145c1.285-1.562,3.186-2.329,5.422-2.329C528.76,109.672,532.282,112.981,532.282,118.037z M528.392,118.037
			c0-3.125-2.084-5.117-4.842-5.117c-2.756,0-4.87,1.992-4.87,5.117c0,3.125,2.114,5.116,4.87,5.116
			C526.308,123.153,528.392,121.162,528.392,118.037z"/>
		<path fill="#E8E7E7" d="M570.453,128.362c-1.41,1.654-3.341,2.543-5.609,2.543c-2.908,0-5.086-1.134-8.24-4.443
			c-6.006-0.521-10.326-5.025-10.326-10.968c0-6.343,4.903-11.031,11.553-11.031c6.648,0,11.55,4.658,11.55,11.031
			c0,5.178-3.248,9.223-8.027,10.57c1.226,1.317,2.327,1.808,3.585,1.808c1.41,0,2.633-0.583,3.675-1.716L570.453,128.362z
			 M557.83,123.03c4.318,0,7.535-3.156,7.535-7.536c0-4.382-3.217-7.538-7.535-7.538c-4.321,0-7.538,3.156-7.538,7.538
			C550.292,119.875,553.509,123.03,557.83,123.03z"/>
		<path fill="#E8E7E7" d="M590.762,109.856v22.305h-3.831v-7.936c-1.316,1.502-3.154,2.206-5.238,2.206
			c-4.78,0-8.274-3.309-8.274-8.394c0-5.056,3.494-8.365,8.274-8.365c2.237,0,4.137,0.766,5.423,2.329v-2.145H590.762z
			 M586.993,118.037c0-3.125-2.084-5.117-4.873-5.117c-2.756,0-4.84,1.992-4.84,5.117c0,3.125,2.084,5.116,4.84,5.116
			C584.909,123.153,586.993,121.162,586.993,118.037z"/>
		<path fill="#E8E7E7" d="M313.991,162.978l-4.383-6.281c-0.274,0.03-0.552,0.03-0.827,0.03h-4.842v6.25h-3.981v-21.447h8.823
			c5.638,0,9.132,2.88,9.132,7.628c0,3.248-1.656,5.638-4.567,6.772l4.934,7.046H313.991z M308.598,144.901h-4.658v8.549h4.658
			c3.494,0,5.301-1.594,5.301-4.29S312.092,144.901,308.598,144.901z"/>
		<path fill="#E8E7E7" d="M332.981,146.433v3.646c-0.337-0.061-0.612-0.092-0.887-0.092c-2.911,0-4.749,1.716-4.749,5.056v7.936
			h-3.831v-16.361h3.647v2.39C328.264,147.291,330.254,146.433,332.981,146.433z"/>
		<path fill="#E8E7E7" d="M346.457,160.711l1.379-3.095c1.716,1.379,4.443,2.359,7.079,2.359c3.339,0,4.749-1.195,4.749-2.788
			c0-4.627-12.745-1.593-12.745-9.56c0-3.462,2.758-6.404,8.639-6.404c2.574,0,5.27,0.674,7.139,1.9l-1.254,3.095
			c-1.932-1.134-4.047-1.686-5.916-1.686c-3.307,0-4.655,1.287-4.655,2.911c0,4.566,12.715,1.594,12.715,9.467
			c0,3.432-2.789,6.373-8.671,6.373C351.574,163.284,348.235,162.243,346.457,160.711z"/>
		<path fill="#E8E7E7" d="M366.828,161.354l1.473-2.911c1.438,0.95,3.645,1.624,5.697,1.624c2.421,0,3.432-0.674,3.432-1.808
			c0-3.125-10.109-0.183-10.109-6.709c0-3.095,2.787-5.117,7.198-5.117c2.178,0,4.658,0.521,6.128,1.41l-1.47,2.91
			c-1.562-0.918-3.126-1.225-4.687-1.225c-2.33,0-3.432,0.766-3.432,1.838c0,3.309,10.109,0.368,10.109,6.772
			c0,3.063-2.818,5.054-7.414,5.054C371.027,163.192,368.301,162.396,366.828,161.354z"/>
		<path fill="#E8E7E7" d="M400.712,144.901h-7.107v-3.37h18.198v3.37h-7.109v18.077h-3.981V144.901z"/>
		<path fill="#E8E7E7" d="M425.953,162.089c-0.92,0.736-2.299,1.103-3.678,1.103c-3.585,0-5.638-1.899-5.638-5.515v-7.874h-2.696
			v-3.065h2.696v-3.738h3.831v3.738h4.38v3.065h-4.38v7.782c0,1.594,0.796,2.451,2.268,2.451c0.796,0,1.563-0.214,2.144-0.674
			L425.953,162.089z"/>
		<path fill="#E8E7E7" d="M440.809,153.634v-12.103h3.983v11.948c0,4.413,1.991,6.312,5.454,6.312c3.46,0,5.423-1.898,5.423-6.312
			v-11.948h3.922v12.103c0,6.25-3.525,9.65-9.376,9.65C444.331,163.284,440.809,159.883,440.809,153.634z"/>
		<path fill="#E8E7E7" d="M482.165,146.617v16.361h-3.647v-2.084c-1.224,1.502-3.154,2.298-5.27,2.298
			c-4.196,0-7.045-2.298-7.045-7.23v-9.344h3.828v8.823c0,2.973,1.41,4.382,3.831,4.382c2.665,0,4.474-1.655,4.474-4.933v-8.272
			H482.165z"/>
		<path fill="#E8E7E7" d="M518.682,141.531l-9.345,21.447h-3.921l-9.376-21.447h4.318l7.139,16.545l7.201-16.545H518.682z"/>
		<path fill="#E8E7E7" d="M537.365,146.617l-7.017,16.361h-3.953l-7.014-16.361h3.981l5.085,12.133l5.241-12.133H537.365z"/>
		<path fill="#E8E7E7" d="M582.983,141.531l-7.11,21.447h-4.228l-5.301-15.871l-5.392,15.871h-4.259l-7.11-21.447h4.138
			l5.331,16.299l5.545-16.299h3.678l5.423,16.391l5.485-16.391H582.983z"/>
		<path fill="#E8E7E7" d="M612.849,146.617l-6.036,16.361h-3.676l-4.228-11.275l-4.29,11.275h-3.679l-6.003-16.361h3.613
			l4.321,12.071l4.505-12.071h3.217l4.411,12.133l4.443-12.133H612.849z"/>
		<path fill="#E8E7E7" d="M313.471,199.739l-5.822-8.149l-5.759,8.149h-4.536l7.965-10.938l-7.535-10.508h4.503l5.484,7.628
			l5.423-7.628h4.321l-7.507,10.355l8.059,11.091H313.471z"/>
		<path fill="#E8E7E7" d="M331.542,199.739l-4.196-5.669l-4.23,5.669h-4.228l6.374-8.304l-6.097-8.057h4.259l4.013,5.361
			l4.013-5.361h4.137l-6.128,7.996l6.405,8.365H331.542z"/>
		<path fill="#E8E7E7" d="M359.816,192.171v7.567h-3.983v-7.506l-8.425-13.94h4.259l6.281,10.447l6.343-10.447h3.921
			L359.816,192.171z"/>
		<path fill="#E8E7E7" d="M386.01,183.378l-7.66,17.679c-1.5,3.707-3.584,4.841-6.312,4.841c-1.622,0-3.338-0.552-4.381-1.502
			l1.532-2.819c0.736,0.705,1.775,1.134,2.817,1.134c1.349,0,2.146-0.643,2.88-2.267l0.277-0.644l-7.139-16.422h3.981l5.148,12.102
			l5.179-12.102H386.01z"/>
		<path fill="#E8E7E7" d="M416.948,196.369v3.37h-18.292v-2.666l12.623-15.411h-12.408v-3.37h17.678v2.665l-12.623,15.413H416.948z"
			/>
		<path fill="#E8E7E7" d="M434.533,196.675v3.064h-14.127v-2.421l8.979-10.876h-8.795v-3.063h13.697v2.421l-9.008,10.876H434.533z"
			/>
	</g>
</g>
</svg>
