<?xml version="1.0" encoding="utf-8"?>
<!-- Generator: Adobe Illustrator 15.0.0, SVG Export Plug-In . SVG Version: 6.00 Build 0)  -->
<!DOCTYPE svg PUBLIC "-//W3C//DTD SVG 1.1//EN" "http://www.w3.org/Graphics/SVG/1.1/DTD/svg11.dtd">
<svg version="1.1" id="Layer_1" xmlns="http://www.w3.org/2000/svg" xmlns:xlink="http://www.w3.org/1999/xlink" x="0px" y="0px"
	 width="625px" height="247px" viewBox="0 0 625 247" enable-background="new 0 0 625 247" xml:space="preserve">
<g>
	<g>
		<g>
			<path fill="#A18F60" d="M52.321,61.097L52.28,36.182L40.092,57.228h-1.039L26.865,36.265v24.832h-2.079V31.979h1.788
				l13.021,22.503l13.018-22.503h1.746L54.4,61.097H52.321z"/>
			<path fill="#A18F60" d="M62.558,50.241c0-6.448,4.616-11.022,10.855-11.022s10.855,4.575,10.855,11.022
				c0,6.447-4.616,11.021-10.855,11.021S62.558,56.688,62.558,50.241z M82.148,50.241c0-5.45-3.745-9.151-8.735-9.151
				c-4.992,0-8.735,3.701-8.735,9.151c0,5.449,3.743,9.15,8.735,9.15C78.403,59.391,82.148,55.689,82.148,50.241z"/>
			<path fill="#A18F60" d="M111.185,48.41v12.687h-2.081v-12.52c0-4.908-2.621-7.487-7.03-7.487c-5.113,0-8.234,3.285-8.234,8.443
				v11.563H91.76V39.384h1.996v4.701c1.457-3.037,4.492-4.867,8.61-4.867C107.649,39.218,111.185,42.338,111.185,48.41z"/>
			<path fill="#A18F60" d="M131.566,59.724c-1.081,1.04-2.828,1.538-4.451,1.538c-3.825,0-5.904-2.246-5.904-5.906V41.172h-3.994
				v-1.789h3.994v-4.742h2.079v4.742h6.905v1.789h-6.905v13.977c0,2.787,1.373,4.325,4.035,4.325c1.289,0,2.494-0.416,3.367-1.205
				L131.566,59.724z"/>
			<path fill="#A18F60" d="M135.188,58.476l0.956-1.664c1.664,1.416,4.616,2.621,7.817,2.621c4.578,0,6.408-1.622,6.408-4.076
				c0-6.322-14.394-1.664-14.394-10.191c0-3.286,2.747-5.947,8.237-5.947c2.745,0,5.739,0.832,7.444,2.12l-0.956,1.664
				c-1.83-1.331-4.202-1.955-6.53-1.955c-4.243,0-6.114,1.747-6.114,4.076c0,6.531,14.392,1.913,14.392,10.191
				c0,3.536-3.036,5.947-8.569,5.947C140.302,61.262,136.893,60.057,135.188,58.476z"/>
			<path fill="#A18F60" d="M177.655,50.74h-18.676c0.21,5.157,3.995,8.651,9.194,8.651c2.745,0,5.282-0.998,6.947-3.036l1.205,1.372
				c-1.913,2.331-4.909,3.536-8.193,3.536c-6.574,0-11.19-4.575-11.19-11.021c0-6.448,4.45-11.022,10.399-11.022
				c5.946,0,10.355,4.492,10.355,10.938C177.697,50.324,177.655,50.531,177.655,50.74z M159.021,49.117h16.639
				c-0.291-4.701-3.702-8.069-8.318-8.069S159.355,44.375,159.021,49.117z"/>
			<path fill="#A18F60" d="M195.461,39.218v2.037c-0.166,0-0.335-0.042-0.501-0.042c-4.823,0-7.693,3.203-7.693,8.568v11.314h-2.081
				V39.384h1.996v4.742C188.514,40.965,191.383,39.218,195.461,39.218z"/>
			<path fill="#A18F60" d="M212.517,39.218v2.037c-0.166,0-0.335-0.042-0.501-0.042c-4.823,0-7.692,3.203-7.692,8.568v11.314h-2.082
				V39.384h1.996v4.742C205.569,40.965,208.439,39.218,212.517,39.218z"/>
			<path fill="#A18F60" d="M234.979,47.329v13.768h-1.996v-3.869c-1.374,2.497-4.036,4.035-7.82,4.035
				c-4.868,0-7.82-2.495-7.82-6.198c0-3.285,2.079-6.072,8.11-6.072h7.447v-1.747c0-4.035-2.206-6.198-6.449-6.198
				c-2.994,0-5.697,1.123-7.485,2.745l-1.04-1.497c2.162-1.914,5.324-3.078,8.691-3.078
				C231.985,39.218,234.979,41.963,234.979,47.329z M232.9,54.691v-4.077h-7.405c-4.492,0-6.073,1.873-6.073,4.368
				c0,2.829,2.206,4.576,6.031,4.576C229.113,59.558,231.651,57.811,232.9,54.691z"/>
			<path fill="#A18F60" d="M255.36,59.724c-1.081,1.04-2.828,1.538-4.45,1.538c-3.826,0-5.905-2.246-5.905-5.906V41.172h-3.994
				v-1.789h3.994v-4.742h2.079v4.742h6.905v1.789h-6.905v13.977c0,2.787,1.374,4.325,4.036,4.325c1.288,0,2.493-0.416,3.367-1.205
				L255.36,59.724z"/>
			<path fill="#A18F60" d="M140.18,81.898h2.12v27.204h16.763v1.913H140.18V81.898z"/>
			<path fill="#A18F60" d="M164.224,82.355c0-0.915,0.749-1.705,1.705-1.705c0.957,0,1.706,0.748,1.706,1.663
				c0,0.957-0.749,1.706-1.706,1.706C164.973,84.02,164.224,83.271,164.224,82.355z M164.89,89.302h2.079v21.713h-2.079V89.302z"/>
			<path fill="#A18F60" d="M196.334,89.302v19.384c0,7.278-3.535,10.565-10.523,10.565c-3.95,0-7.735-1.248-9.94-3.453l1.122-1.581
				c2.164,1.997,5.282,3.161,8.776,3.161c5.783,0,8.486-2.662,8.486-8.443v-3.66c-1.788,3.161-5.116,4.949-9.025,4.949
				c-6.156,0-10.813-4.367-10.813-10.565s4.657-10.522,10.813-10.522c3.992,0,7.361,1.83,9.108,5.074v-4.908H196.334z
				 M194.297,99.659c0-5.116-3.743-8.651-8.901-8.651c-5.116,0-8.859,3.535-8.859,8.651c0,5.117,3.743,8.694,8.859,8.694
				C190.554,108.353,194.297,104.775,194.297,99.659z"/>
			<path fill="#A18F60" d="M225.619,98.328v12.687h-2.079v-12.52c0-4.908-2.62-7.487-7.029-7.487c-5.117,0-8.235,3.285-8.235,8.443
				v11.563h-2.081V80.151h2.081v13.685c1.496-2.952,4.492-4.699,8.525-4.699C222.084,89.136,225.619,92.256,225.619,98.328z"/>
			<path fill="#A18F60" d="M246.003,109.642c-1.081,1.04-2.827,1.538-4.45,1.538c-3.826,0-5.907-2.246-5.907-5.906V91.091h-3.992
				v-1.789h3.992V84.56h2.081v4.742h6.903v1.789h-6.903v13.976c0,2.787,1.371,4.325,4.033,4.325c1.291,0,2.496-0.416,3.37-1.205
				L246.003,109.642z"/>
			<path fill="#A18F60" d="M250.827,90.883c0-1,0.79-1.747,1.747-1.747c0.959,0,1.747,0.748,1.747,1.747
				c0,0.998-0.788,1.789-1.747,1.789C251.617,92.672,250.827,91.881,250.827,90.883z M250.827,109.392
				c0-0.998,0.79-1.747,1.747-1.747c0.959,0,1.747,0.75,1.747,1.747c0,1-0.788,1.789-1.747,1.789
				C251.617,111.18,250.827,110.391,250.827,109.392z"/>
		</g>
	</g>
	<g>
		<path fill="#E8E7E7" d="M315.45,46.814h-12.439l-2.728,6.035h-1.685l9.865-21.446h1.563l9.865,21.446h-1.685L315.45,46.814z
			 M314.866,45.496l-5.638-12.378l-5.606,12.378H314.866z"/>
		<path fill="#E8E7E7" d="M336.37,42.708V52.85h-1.47V50c-1.011,1.839-2.97,2.973-5.759,2.973c-3.585,0-5.76-1.839-5.76-4.565
			c0-2.42,1.531-4.473,5.975-4.473h5.482v-1.287c0-2.972-1.623-4.566-4.749-4.566c-2.206,0-4.196,0.828-5.514,2.022L323.81,39
			c1.594-1.409,3.922-2.267,6.404-2.267C334.165,36.733,336.37,38.755,336.37,42.708z M334.839,48.131v-3.001h-5.454
			c-3.308,0-4.472,1.377-4.472,3.217c0,2.083,1.623,3.37,4.443,3.37C332.052,51.716,333.921,50.429,334.839,48.131z"/>
		<path fill="#E8E7E7" d="M371.57,47.181c0,3.616-2.636,5.669-7.905,5.669h-9.56V31.403h8.947c4.596,0,7.385,1.93,7.385,5.483
			c0,2.542-1.44,4.198-3.584,4.903C369.886,42.371,371.57,44.209,371.57,47.181z M355.668,32.751v8.547h7.323
			c3.706,0,5.853-1.44,5.853-4.289c0-2.819-2.146-4.259-5.853-4.259H355.668z M370.008,47.059c0-3.064-2.237-4.412-6.343-4.412
			h-7.997v8.854h7.997C367.771,51.502,370.008,50.154,370.008,47.059z"/>
		<path fill="#E8E7E7" d="M394.116,44.854c0,4.779-3.4,8.119-7.905,8.119c-2.88,0-5.301-1.441-6.556-3.892v3.769h-1.473V30.116
			h1.532v10.386c1.288-2.39,3.679-3.769,6.496-3.769C390.716,36.733,394.116,40.042,394.116,44.854z M392.585,44.854
			c0-4.014-2.789-6.741-6.465-6.741c-3.679,0-6.437,2.727-6.437,6.741c0,4.014,2.758,6.74,6.437,6.74
			C389.796,51.594,392.585,48.867,392.585,44.854z"/>
		<path fill="#E8E7E7" d="M408.232,42.126c0-6.251,4.752-10.877,11.123-10.877c3.032,0,5.76,0.981,7.628,2.973l-0.979,1.011
			c-1.838-1.808-4.074-2.544-6.586-2.544c-5.485,0-9.622,4.045-9.622,9.438c0,5.393,4.137,9.437,9.622,9.437
			c2.512,0,4.748-0.766,6.586-2.574L426.983,50c-1.868,1.992-4.596,3.003-7.628,3.003C412.984,53.003,408.232,48.376,408.232,42.126
			z"/>
		<path fill="#E8E7E7" d="M430.781,44.854c0-4.78,3.4-8.12,8.09-8.12c2.543,0,4.749,0.981,6.065,2.942l-1.133,0.827
			c-1.166-1.624-2.942-2.39-4.933-2.39c-3.769,0-6.527,2.696-6.527,6.741c0,4.043,2.759,6.74,6.527,6.74
			c1.99,0,3.767-0.766,4.933-2.39l1.133,0.827c-1.316,1.93-3.522,2.942-6.065,2.942C434.182,52.973,430.781,49.602,430.781,44.854z"
			/>
		<path fill="#E8E7E7" d="M460.953,31.403h8.488c6.802,0,11.397,4.472,11.397,10.723c0,6.25-4.596,10.723-11.397,10.723h-8.488
			V31.403z M469.317,51.441c6.068,0,9.959-3.861,9.959-9.314s-3.891-9.314-9.959-9.314h-6.802v18.629H469.317z"/>
		<path fill="#E8E7E7" d="M501.516,30.116V52.85h-1.5v-3.769c-1.258,2.482-3.679,3.892-6.559,3.892c-4.505,0-7.905-3.34-7.905-8.119
			c0-4.811,3.4-8.12,7.905-8.12c2.849,0,5.239,1.41,6.527,3.83V30.116H501.516z M499.984,44.854c0-4.014-2.758-6.741-6.434-6.741
			c-3.679,0-6.437,2.727-6.437,6.741c0,4.014,2.758,6.74,6.437,6.74C497.227,51.594,499.984,48.867,499.984,44.854z"/>
		<path fill="#E8E7E7" d="M534.202,51.441v1.409h-14.801V31.403h14.339v1.409h-12.776v8.457h11.429v1.379h-11.429v8.793H534.202z"/>
		<path fill="#E8E7E7" d="M554.174,45.22h-13.756c0.152,3.8,2.939,6.374,6.771,6.374c2.021,0,3.891-0.736,5.116-2.237l0.89,1.011
			c-1.41,1.716-3.616,2.604-6.037,2.604c-4.842,0-8.243-3.371-8.243-8.119c0-4.75,3.279-8.12,7.662-8.12
			c4.381,0,7.629,3.309,7.629,8.059C554.205,44.914,554.174,45.067,554.174,45.22z M540.446,44.025h12.258
			c-0.215-3.462-2.727-5.944-6.128-5.944C543.173,38.082,540.692,40.532,540.446,44.025z"/>
		<path fill="#E8E7E7" d="M571.938,32.812v9.162h11.429v1.409h-11.429v9.467h-1.563V31.403h14.34v1.409H571.938z"/>
		<path fill="#E8E7E7" d="M592.555,34.528v2.329h5.116v1.317h-5.088V52.85h-1.532V38.173h-2.939v-1.317h2.939v-2.452
			c0-2.665,1.595-4.412,4.443-4.412c1.166,0,2.39,0.337,3.157,1.042l-0.614,1.164c-0.644-0.582-1.532-0.888-2.48-0.888
			C593.565,31.311,592.555,32.414,592.555,34.528z"/>
		<path fill="#E8E7E7" d="M317.503,78.979h1.501v8.028c-1.932,1.838-4.718,2.757-7.66,2.757c-6.464,0-11.213-4.627-11.213-10.876
			c0-6.251,4.749-10.877,11.244-10.877c3.095,0,5.822,0.981,7.722,2.942l-0.982,1.042c-1.868-1.839-4.105-2.544-6.708-2.544
			c-5.578,0-9.713,4.045-9.713,9.438c0,5.362,4.135,9.436,9.713,9.436c2.266,0,4.35-0.551,6.097-1.961V78.979z"/>
		<path fill="#E8E7E7" d="M341.306,73.617v14.277c0,5.362-2.605,7.783-7.753,7.783c-2.911,0-5.697-0.919-7.322-2.543l0.826-1.165
			c1.595,1.471,3.892,2.329,6.465,2.329c4.259,0,6.252-1.961,6.252-6.22v-2.696c-1.319,2.328-3.769,3.646-6.648,3.646
			c-4.536,0-7.968-3.217-7.968-7.782c0-4.565,3.432-7.752,7.968-7.752c2.939,0,5.423,1.348,6.708,3.738v-3.615H341.306z
			 M339.805,81.246c0-3.769-2.758-6.373-6.558-6.373c-3.769,0-6.527,2.604-6.527,6.373c0,3.769,2.759,6.403,6.527,6.403
			C337.047,87.649,339.805,85.015,339.805,81.246z"/>
		<path fill="#E8E7E7" d="M376.685,68.164V89.61h-1.561V79.408h-14.339V89.61h-1.563V68.164h1.563v9.866h14.339v-9.866H376.685z"/>
		<path fill="#E8E7E7" d="M399.508,80.266v9.344h-1.532v-9.223c0-3.614-1.931-5.515-5.179-5.515c-3.769,0-6.065,2.42-6.065,6.22
			v8.518H385.2V66.877h1.531v10.079c1.102-2.175,3.308-3.462,6.281-3.462C396.903,73.494,399.508,75.792,399.508,80.266z"/>
		<path fill="#E8E7E7" d="M417.24,68.164h1.563V89.61h-1.563V68.164z"/>
		<path fill="#E8E7E7" d="M426.828,68.501c0-0.674,0.553-1.257,1.258-1.257c0.704,0,1.254,0.552,1.254,1.226
			c0,0.705-0.55,1.256-1.254,1.256C427.381,69.726,426.828,69.175,426.828,68.501z M427.318,73.617h1.532V89.61h-1.532V73.617z"/>
		<path fill="#E8E7E7" d="M442.972,86.7l0.948-1.042c1.167,1.747,2.82,2.697,4.752,2.697c2.849,0,4.259-1.624,4.259-5.056V69.572
			h-7.906v-1.409h9.467v15.135c0,4.319-1.991,6.465-5.819,6.465C446.342,89.764,444.197,88.629,442.972,86.7z"/>
		<path fill="#E8E7E7" d="M456.726,94.604l0.611-1.133c0.646,0.582,1.563,0.888,2.605,0.888c1.868,0,2.879-1.133,2.879-3.217V73.617
			h1.532v17.586c0,2.697-1.532,4.474-4.318,4.474C458.747,95.677,457.492,95.34,456.726,94.604z M462.332,68.501
			c0-0.674,0.552-1.257,1.257-1.257s1.255,0.552,1.255,1.226c0,0.705-0.55,1.256-1.255,1.256S462.332,69.175,462.332,68.501z"/>
		<path fill="#E8E7E7" d="M488.615,79.04l-4.809,4.933v5.638h-1.562V68.164h1.562v13.788l13.389-13.788h1.899l-9.438,9.743
			l10.081,11.704h-1.9L488.615,79.04z"/>
		<path fill="#E8E7E7" d="M510.519,81.062l-4.166,3.8v4.749h-1.531V66.877h1.531v16.085l10.233-9.345h1.96l-6.893,6.465l7.566,9.528
			h-1.899L510.519,81.062z"/>
		<path fill="#E8E7E7" d="M534.259,68.164h1.563v20.038h12.346v1.409h-13.909V68.164z"/>
		<path fill="#E8E7E7" d="M553.22,66.877h1.532V89.61h-1.532V66.877z"/>
		<path fill="#E8E7E7" d="M322.467,126.37l-0.031-18.354l-8.977,15.503h-0.767l-8.977-15.441v18.291h-1.532v-21.447h1.316
			l9.591,16.575l9.591-16.575h1.286l0.03,21.447H322.467z"/>
		<path fill="#E8E7E7" d="M358.8,117.025v9.345h-1.532v-9.223c0-3.615-1.871-5.515-4.995-5.515c-3.615,0-5.853,2.419-5.853,6.22
			v8.518h-1.532v-9.223c0-3.615-1.868-5.515-4.995-5.515c-3.613,0-5.85,2.419-5.85,6.22v8.518h-1.532v-15.993h1.47v3.431
			c1.042-2.236,3.217-3.554,6.128-3.554c2.88,0,4.995,1.318,5.853,3.86c1.042-2.329,3.37-3.86,6.465-3.86
			C356.285,110.254,358.8,112.552,358.8,117.025z"/>
		<path fill="#E8E7E7" d="M393.994,104.923v21.447h-1.288l-14.613-18.629v18.629h-1.563v-21.447h1.319l14.583,18.628v-18.628
			H393.994z"/>
		<path fill="#E8E7E7" d="M416.815,117.025v9.345h-1.532v-9.223c0-3.615-1.929-5.515-5.177-5.515c-3.769,0-6.067,2.419-6.067,6.22
			v8.518h-1.532v-15.993h1.473v3.461c1.07-2.237,3.308-3.584,6.34-3.584C414.213,110.254,416.815,112.552,416.815,117.025z"/>
		<path fill="#E8E7E7" d="M432.494,115.646c0-6.22,4.752-10.877,11.154-10.877c6.374,0,11.153,4.626,11.153,10.877
			c0,6.25-4.779,10.876-11.153,10.876C437.246,126.523,432.494,121.866,432.494,115.646z M453.208,115.646
			c0-5.424-4.106-9.438-9.56-9.438c-5.485,0-9.591,4.014-9.591,9.438c0,5.423,4.105,9.437,9.591,9.437
			C449.102,125.083,453.208,121.069,453.208,115.646z"/>
		<path fill="#E8E7E7" d="M459.515,118.373c0-4.749,3.4-8.119,7.999-8.119c4.596,0,7.996,3.371,7.996,8.119
			c0,4.749-3.4,8.12-7.996,8.12C462.915,126.493,459.515,123.122,459.515,118.373z M473.947,118.373c0-4.014-2.759-6.74-6.434-6.74
			c-3.679,0-6.437,2.727-6.437,6.74c0,4.014,2.758,6.741,6.437,6.741C471.188,125.114,473.947,122.387,473.947,118.373z"/>
		<path fill="#E8E7E7" d="M508.012,112.154c0,4.503-3.248,7.199-8.642,7.199h-6.128v7.017h-1.563v-21.447h7.691
			C504.764,104.923,508.012,107.619,508.012,112.154z M506.418,112.154c0-3.708-2.452-5.822-7.048-5.822h-6.128v11.612h6.128
			C503.966,117.944,506.418,115.831,506.418,112.154z"/>
		<path fill="#E8E7E7" d="M529.759,118.373c0,4.81-3.4,8.12-7.902,8.12c-2.82,0-5.211-1.379-6.496-3.769v9.589h-1.532v-21.937h1.47
			v3.768c1.258-2.451,3.679-3.891,6.559-3.891C526.358,110.254,529.759,113.594,529.759,118.373z M528.228,118.373
			c0-4.014-2.787-6.74-6.465-6.74c-3.676,0-6.434,2.727-6.434,6.74c0,4.014,2.758,6.741,6.434,6.741
			C525.44,125.114,528.228,122.387,528.228,118.373z"/>
		<path fill="#E8E7E7" d="M567.132,128.025c-1.286,1.593-3.033,2.419-5.055,2.419c-2.358,0-4.442-1.132-7.107-3.921
			c-6.374-0.03-11.092-4.688-11.092-10.876c0-6.22,4.749-10.877,11.151-10.877c6.374,0,11.153,4.626,11.153,10.877
			c0,5.576-3.828,9.865-9.191,10.724c1.778,1.869,3.463,2.758,5.086,2.758c1.685,0,3.063-0.674,4.228-2.053L567.132,128.025z
			 M555.029,125.083c5.454,0,9.56-4.075,9.56-9.437s-4.105-9.438-9.56-9.438c-5.482,0-9.588,4.076-9.588,9.438
			S549.547,125.083,555.029,125.083z"/>
		<path fill="#E8E7E7" d="M586.859,110.377v21.937h-1.531v-9.651c-1.286,2.421-3.676,3.831-6.524,3.831
			c-4.505,0-7.906-3.311-7.906-8.12c0-4.779,3.401-8.119,7.906-8.119c2.88,0,5.298,1.409,6.556,3.891v-3.768H586.859z
			 M585.328,118.373c0-4.014-2.758-6.74-6.434-6.74s-6.434,2.727-6.434,6.74c0,4.014,2.758,6.741,6.434,6.741
			S585.328,122.387,585.328,118.373z"/>
		<path fill="#E8E7E7" d="M317.072,163.13l-5.114-7.169c-0.676,0.092-1.351,0.153-2.084,0.153h-6.127v7.017h-1.563v-21.447h7.69
			c5.392,0,8.64,2.696,8.64,7.23c0,3.401-1.838,5.76-5.023,6.71l5.36,7.506H317.072z M309.874,154.735
			c4.596,0,7.046-2.144,7.046-5.821c0-3.708-2.45-5.821-7.046-5.821h-6.127v11.642H309.874z"/>
		<path fill="#E8E7E7" d="M332.848,147.015v1.5c-0.122,0-0.243-0.03-0.368-0.03c-3.554,0-5.666,2.359-5.666,6.312v8.333h-1.532
			v-15.993h1.47v3.493C327.731,148.301,329.846,147.015,332.848,147.015z"/>
		<path fill="#E8E7E7" d="M346.602,160.373l0.702-1.164c1.473,1.532,4.199,2.695,7.079,2.695c4.29,0,6.189-1.869,6.189-4.196
			c0-6.435-13.391-2.574-13.391-10.479c0-3.034,2.33-5.7,7.601-5.7c2.358,0,4.808,0.736,6.464,1.931l-0.583,1.256
			c-1.775-1.226-3.953-1.808-5.881-1.808c-4.168,0-6.037,1.931-6.037,4.29c0,6.434,13.388,2.635,13.388,10.417
			c0,3.033-2.418,5.667-7.719,5.667C351.226,163.283,348.162,162.088,346.602,160.373z"/>
		<path fill="#E8E7E7" d="M366.114,161.201l0.702-1.226c1.227,1.042,3.401,1.93,5.763,1.93c3.369,0,4.718-1.195,4.718-3.001
			c0-4.658-10.602-1.226-10.602-7.506c0-2.421,2.021-4.382,6.067-4.382c2.022,0,4.228,0.613,5.482,1.562l-0.702,1.225
			c-1.351-0.98-3.095-1.44-4.812-1.44c-3.126,0-4.505,1.287-4.505,3.003c0,4.811,10.602,1.409,10.602,7.506
			c0,2.604-2.236,4.382-6.312,4.382C369.881,163.254,367.369,162.364,366.114,161.201z"/>
		<path fill="#E8E7E7" d="M398.647,143.093h-7.722v-1.409h17.004v1.409h-7.72v20.038h-1.562V143.093z"/>
		<path fill="#E8E7E7" d="M420.797,162.12c-0.799,0.766-2.084,1.134-3.279,1.134c-2.82,0-4.352-1.655-4.352-4.351v-10.449h-2.939
			v-1.316h2.939v-3.493h1.531v3.493h5.089v1.316h-5.089v10.294c0,2.053,1.011,3.187,2.974,3.187c0.948,0,1.838-0.306,2.48-0.889
			L420.797,162.12z"/>
		<path fill="#E8E7E7" d="M436.295,154.031v-12.348h1.562v12.285c0,5.363,2.574,7.875,7.045,7.875c4.475,0,7.018-2.512,7.018-7.875
			v-12.285h1.562v12.348c0,6.127-3.279,9.252-8.608,9.252C439.542,163.283,436.295,160.159,436.295,154.031z"/>
		<path fill="#E8E7E7" d="M475.813,147.138v15.993h-1.47v-3.432c-1.042,2.237-3.217,3.555-6.037,3.555
			c-4.075,0-6.68-2.298-6.68-6.772v-9.344h1.532v9.221c0,3.616,1.931,5.516,5.27,5.516c3.615,0,5.853-2.421,5.853-6.219v-8.518
			H475.813z"/>
		<path fill="#E8E7E7" d="M510.857,141.684l-9.559,21.447h-1.561l-9.56-21.447h1.716l8.67,19.425l8.671-19.425H510.857z"/>
		<path fill="#E8E7E7" d="M528.165,147.138l-7.231,15.993h-1.563l-7.198-15.993h1.623l6.374,14.308l6.434-14.308H528.165z"/>
		<path fill="#E8E7E7" d="M571.605,141.684l-7.261,21.447h-1.656l-6.648-19.241l-6.677,19.241h-1.656l-7.292-21.447h1.654
			l6.526,19.302l6.711-19.302h1.501l6.68,19.333l6.586-19.333H571.605z"/>
		<path fill="#E8E7E7" d="M599.973,147.138l-6.067,15.993h-1.438l-5.395-13.879l-5.423,13.879h-1.41l-6.065-15.993h1.47
			l5.332,14.277l5.454-14.277h1.316l5.426,14.246l5.392-14.246H599.973z"/>
		<path fill="#E8E7E7" d="M315.634,199.891l-7.385-9.927l-7.354,9.927h-1.838l8.243-11.06l-7.66-10.387h1.838l6.833,9.221
			l6.832-9.221h1.747l-7.662,10.355l8.243,11.091H315.634z"/>
		<path fill="#E8E7E7" d="M332.055,199.891l-5.485-7.138l-5.484,7.138h-1.747l6.343-8.242l-6.006-7.751h1.747l5.147,6.648
			l5.148-6.648h1.713l-6.003,7.751l6.434,8.242H332.055z"/>
		<path fill="#E8E7E7" d="M355.824,192.508v7.383h-1.563v-7.383l-8.64-14.063h1.717l7.75,12.624l7.753-12.624h1.622L355.824,192.508
			z"/>
		<path fill="#E8E7E7" d="M380.975,183.898l-8.212,18.167c-1.285,2.942-2.88,3.892-4.994,3.892c-1.439,0-2.787-0.49-3.707-1.44
			l0.768-1.165c0.826,0.858,1.775,1.257,2.97,1.257c1.473,0,2.543-0.674,3.525-2.85l0.855-1.93l-7.198-15.932h1.623l6.404,14.308
			l6.403-14.308H380.975z"/>
		<path fill="#E8E7E7" d="M410.719,198.482v1.409h-17.279v-1.103l14.799-18.935h-14.614v-1.409h16.758v1.103l-14.768,18.935H410.719
			z"/>
		<path fill="#E8E7E7" d="M427.383,198.573v1.318h-12.714v-1.042l10.539-13.634h-10.386v-1.316h12.377v1.041l-10.57,13.634H427.383z
			"/>
	</g>
</g>
</svg>
